<?xml version="1.0" encoding="utf-8"?>
<!-- Generator: Adobe Illustrator 15.1.0, SVG Export Plug-In . SVG Version: 6.00 Build 0)  -->
<!DOCTYPE svg PUBLIC "-//W3C//DTD SVG 1.1//EN" "http://www.w3.org/Graphics/SVG/1.1/DTD/svg11.dtd">
<svg version="1.1" id="Layer_1" xmlns="http://www.w3.org/2000/svg" xmlns:xlink="http://www.w3.org/1999/xlink" x="0px" y="0px"
	 width="257.747px" height="225.412px" viewBox="0 0 257.747 225.412" enable-background="new 0 0 257.747 225.412"
	 xml:space="preserve">
<path fill="#FFFFFF" d="M141.914,152.215c-8.477-9.219-12.77-21.408-12.77-36.242c0-7.99,1.83-17.312,5.535-28.111l-19.075-37.193
	L84.047,66.854l38.468,74.998c2.675,5.217,3.959,9.149,3.854,11.8c-0.158,2.552-1.75,4.603-4.775,6.154
	c-2.927,1.501-5.549,1.516-7.863,0.043c-2.317-1.472-4.775-4.739-7.372-9.805L67.929,75.121L36.374,91.306l39.405,76.828
	c7.553,14.724,17.687,23.053,30.403,24.986c10.009,1.504,20.414-0.515,31.208-6.053c9.534-4.89,16.411-11.422,20.628-19.598
	c0.646-1.266,1.216-2.518,1.722-3.757C152.885,161.453,146.915,157.619,141.914,152.215z"/>
<g>
	<path fill="#F8AA33" d="M204.007,31.811l-21.025,37.407c-0.795,1.42-1.731,2.997-2.81,4.729c-1.079,1.733-2.299,3.619-3.66,5.66
		c4.71-2.495,8.881-3.742,12.515-3.742c9.022,0,16.655,3.975,22.896,11.92c6.299,7.894,9.45,17.551,9.45,28.976
		c0,13.632-4.229,24.808-12.685,33.529c-8.456,8.555-19.466,12.831-33.029,12.831c-12.883,0-23.269-4.263-31.155-12.787
		c-7.89-8.581-11.833-19.864-11.833-33.851c0-14.989,7.065-35.691,21.196-62.104l12.003-22.568L204.007,31.811L204.007,31.811z
		 M187.187,117.941c0-11.042-3.46-16.564-10.381-16.564c-6.631,0-9.944,5.575-9.944,16.728c0,11.585,3.313,17.376,9.944,17.376
		C183.725,135.48,187.187,129.635,187.187,117.941"/>
</g>
</svg>
