<?xml version="1.0" encoding="utf-8"?>
<!-- Generator: Adobe Illustrator 15.1.0, SVG Export Plug-In . SVG Version: 6.00 Build 0)  -->
<!DOCTYPE svg PUBLIC "-//W3C//DTD SVG 1.1//EN" "http://www.w3.org/Graphics/SVG/1.1/DTD/svg11.dtd">
<svg version="1.1" id="Layer_1" xmlns="http://www.w3.org/2000/svg" xmlns:xlink="http://www.w3.org/1999/xlink" x="0px" y="0px"
	 width="367.761px" height="321.625px" viewBox="0 0 367.761 321.625" enable-background="new 0 0 367.761 321.625"
	 xml:space="preserve">
<path fill="#746E60" d="M202.048,215.858c-11.809-12.844-17.792-29.828-17.792-50.494c0-11.133,2.55-24.119,7.712-39.166
	L165.391,74.38l-43.964,22.55l53.594,104.489c3.727,7.267,5.516,12.747,5.369,16.44c-0.22,3.555-2.438,6.412-6.653,8.575
	c-4.079,2.091-7.73,2.111-10.956,0.059c-3.228-2.05-6.651-6.604-10.27-13.661l-53.54-104.384l-43.964,22.549l54.9,107.038
	c10.523,20.514,24.643,32.119,42.358,34.812c13.945,2.096,28.44-0.716,43.481-8.431c13.284-6.812,22.865-15.914,28.74-27.305
	c0.899-1.763,1.694-3.508,2.399-5.234C217.331,228.727,209.014,223.387,202.048,215.858z"/>
<g>
	<path fill="#F8AA33" d="M288.557,48.107l-29.293,52.116c-1.108,1.979-2.412,4.175-3.914,6.588
		c-1.503,2.414-3.202,5.042-5.099,7.885c6.562-3.476,12.373-5.213,17.435-5.213c12.571,0,23.205,5.537,31.902,16.608
		c8.775,10.998,13.165,24.452,13.165,40.369c0,18.993-5.891,34.564-17.671,46.714c-11.782,11.919-27.121,17.877-46.018,17.877
		c-17.949,0-32.417-5.939-43.407-17.817c-10.991-11.955-16.486-27.675-16.486-47.162c0-20.883,9.843-49.725,29.531-86.523
		l16.724-31.442H288.557z M265.122,168.107c0-15.386-4.82-23.078-14.463-23.078c-9.238,0-13.855,7.768-13.855,23.306
		c0,16.14,4.617,24.208,13.855,24.208C260.301,192.542,265.122,184.399,265.122,168.107"/>
</g>
</svg>
