<?xml version="1.0" encoding="utf-8"?>
<!-- Generator: Adobe Illustrator 15.1.0, SVG Export Plug-In . SVG Version: 6.00 Build 0)  -->
<!DOCTYPE svg PUBLIC "-//W3C//DTD SVG 1.1//EN" "http://www.w3.org/Graphics/SVG/1.1/DTD/svg11.dtd">
<svg version="1.1" id="Layer_1" xmlns="http://www.w3.org/2000/svg" xmlns:xlink="http://www.w3.org/1999/xlink" x="0px" y="0px"
	 width="257.747px" height="225.412px" viewBox="0 0 257.747 225.412" enable-background="new 0 0 257.747 225.412"
	 xml:space="preserve">
<path fill="#FFFFFF" d="M136.915,152.215c-8.478-9.219-12.771-21.407-12.771-36.241c0-7.991,1.83-17.312,5.535-28.112
	l-19.075-37.193L79.047,66.854l38.468,74.999c2.675,5.217,3.959,9.148,3.854,11.799c-0.158,2.553-1.75,4.604-4.775,6.154
	c-2.927,1.502-5.549,1.517-7.863,0.043c-2.317-1.472-4.775-4.738-7.372-9.805l-38.43-74.923L31.374,91.306l39.405,76.828
	c7.553,14.725,17.687,23.053,30.403,24.986c10.009,1.504,20.414-0.516,31.208-6.053c9.534-4.891,16.411-11.422,20.628-19.599
	c0.646-1.266,1.216-2.518,1.723-3.757C147.885,161.453,141.915,157.619,136.915,152.215z"/>
<g>
	<path fill="#F8AA33" d="M199.006,31.811l-21.024,37.407c-0.795,1.42-1.731,2.997-2.81,4.729c-1.08,1.733-2.299,3.619-3.66,5.66
		c4.71-2.495,8.881-3.742,12.515-3.742c9.022,0,16.655,3.975,22.896,11.92c6.3,7.894,9.451,17.551,9.451,28.976
		c0,13.633-4.229,24.809-12.686,33.529c-8.456,8.555-19.466,12.831-33.029,12.831c-12.883,0-23.269-4.263-31.154-12.787
		c-7.891-8.581-11.834-19.864-11.834-33.851c0-14.989,7.065-35.691,21.197-62.104l12.002-22.568H199.006L199.006,31.811z
		 M182.187,117.94c0-11.042-3.46-16.563-10.381-16.563c-6.632,0-9.944,5.575-9.944,16.728c0,11.586,3.312,17.377,9.944,17.377
		C178.725,135.479,182.187,129.635,182.187,117.94"/>
</g>
</svg>
